<?xml version="1.0" encoding="iso-8859-1"?>
<!-- Generator: Adobe Illustrator 19.0.0, SVG Export Plug-In . SVG Version: 6.00 Build 0)  -->
<svg version="1.1" id="Capa_1" xmlns="http://www.w3.org/2000/svg" xmlns:xlink="http://www.w3.org/1999/xlink" x="0px" y="0px"
	 viewBox="0 0 512 512" style="enable-background:new 0 0 512 512;" xml:space="preserve">
<circle style="fill:#FFE67D;" cx="256" cy="256" r="256"/>
<path style="fill:#F7D139;" d="M512,256c0-26.631-4.07-52.312-11.616-76.456l-97.551-97.551L99.024,201.738l43.284,187.104
	l122.973,122.973C402.365,506.927,512,394.276,512,256z"/>
<rect x="235.83" y="81.993" style="fill:#2864F0;" width="167" height="341.34"/>
<rect x="318.67" y="81.993" style="fill:#0053BF;" width="84.17" height="341.34"/>
<rect x="263.64" y="112.27" style="fill:#9196AA;" width="45.45" height="45.45"/>
<rect x="329.58" y="112.27" style="fill:#7E8596;" width="45.45" height="45.45"/>
<rect x="263.64" y="184.14" style="fill:#9196AA;" width="45.45" height="45.45"/>
<rect x="329.58" y="184.14" style="fill:#7E8596;" width="45.45" height="45.45"/>
<rect x="263.64" y="256" style="fill:#9196AA;" width="45.45" height="45.45"/>
<rect x="329.58" y="256" style="fill:#7E8596;" width="45.45" height="45.45"/>
<rect x="288.1" y="327.67" style="fill:#0053BF;" width="62.47" height="95.67"/>
<rect x="318.67" y="327.67" style="fill:#32285F;" width="31.902" height="95.67"/>
<path style="fill:#F24500;" d="M179.348,127.319c-60.061,0-108.75,48.689-108.75,108.75c0,104.488,108.75,187.264,108.75,187.264
	s108.75-82.776,108.75-187.264C288.098,176.008,239.409,127.319,179.348,127.319z M179.348,289.642
	c-29.587,0-53.572-23.985-53.572-53.572c0-29.587,23.985-53.572,53.572-53.572s53.572,23.985,53.572,53.572
	C232.921,265.656,208.936,289.642,179.348,289.642z"/>
<path style="fill:#D13400;" d="M288.098,236.069c0-60.05-48.671-108.732-108.718-108.75v55.178
	c29.572,0.018,53.54,23.995,53.54,53.572c0,29.576-23.968,53.554-53.54,53.571l-0.032,133.693
	C180.734,422.275,288.098,339.883,288.098,236.069z"/>
<g>
</g>
<g>
</g>
<g>
</g>
<g>
</g>
<g>
</g>
<g>
</g>
<g>
</g>
<g>
</g>
<g>
</g>
<g>
</g>
<g>
</g>
<g>
</g>
<g>
</g>
<g>
</g>
<g>
</g>
</svg>
