<?xml version="1.0" encoding="iso-8859-1"?>
<!-- Generator: Adobe Illustrator 19.0.0, SVG Export Plug-In . SVG Version: 6.00 Build 0)  -->
<svg version="1.1" id="Capa_1" xmlns="http://www.w3.org/2000/svg" xmlns:xlink="http://www.w3.org/1999/xlink" x="0px" y="0px"
	 viewBox="0 0 512 512" style="enable-background:new 0 0 512 512;" xml:space="preserve">
<path style="fill:#3B465C;" d="M512,256c0,141.385-114.615,256-256,256c-47.198,0-91.408-12.769-129.369-35.046
	c-3.814-2.226-7.555-4.556-11.233-6.98c-33.708-22.194-61.858-52.14-81.91-87.301C12.173,345.318,0,302.08,0,256
	C0,114.615,114.615,0,256,0S512,114.615,512,256z"/>
<path style="fill:#E8A87C;" d="M439.994,273.984l-16.74-8.857c-19.108-10.109-42.304,2.753-43.848,24.316l-2.836,39.601"/>
<rect x="312.968" y="22.489" style="fill:#992D26;" width="67.459" height="98.398"/>
<rect x="334.336" y="41.604" style="fill:#B5423C;" width="46.101" height="79.286"/>
<polygon style="fill:#E0E2E2;" points="380.433,131.638 380.433,386.357 131.565,386.357 131.565,131.638 205.678,65.412 
	255.999,20.442 306.342,65.434 "/>
<polygon style="fill:#CCCCCC;" points="380.433,131.638 380.433,193.331 255.999,92.119 131.565,193.331 131.565,131.638 
	205.678,65.412 255.999,24.483 306.342,65.434 "/>
<polygon style="fill:#FB4A75;" points="114.031,183.105 80.921,142.397 255.997,0.001 431.072,142.397 397.962,183.105 
	255.997,67.637 "/>
<rect x="198.374" y="181.447" style="fill:#FDBC69;" width="115.242" height="115.242"/>
<path style="fill:#FB4A75;" d="M187.132,170.208v137.733h137.733V170.208H187.132z M302.378,217.802h-23.89v-25.107h23.89V217.802z
	 M209.62,192.695H256v92.758h-46.38V192.695z M278.487,285.453V240.29h23.889v45.163H278.487z"/>
<rect x="304.536" y="0.002" style="fill:#E0E2E2;" width="84.323" height="29.662"/>
<rect x="304.536" y="0.002" style="fill:#CCCCCC;" width="18.808" height="29.662"/>
<path style="fill:#E8A87C;" d="M477.32,314.608L361.033,428.136c-11.682,11.41-27.094,18.233-43.405,19.205l-163.798,9.822
	c-0.073,0.01-0.146,0.01-0.219,0.021c-9.707,0.648-18.432,6.186-23.615,14.42l-3.365,5.35c-3.814-2.226-7.555-4.556-11.233-6.98
	c-33.708-22.194-61.858-52.14-81.91-87.301l22.173-29.508l1.494,1.536l30.448-44.032c15.203-22.016,39.623-36.342,66.351-37.616
	c1.087-0.042,2.173-0.084,3.25-0.094l147.31-1.776c5.402-0.052,10.376,1.682,14.378,4.629c0.951,0.7,1.86,1.494,2.696,2.33
	c4.483,4.483,7.178,10.731,6.949,17.586c-0.408,12.361-10.23,22.34-22.58,22.925l-92.118,4.504
	c-5.705,0.272-10.773,2.696-14.493,6.416c-4.598,4.598-7.147,11.191-6.301,18.202c0.115,0.94,0.293,1.87,0.512,2.79h0.01
	c2.508,9.979,11.724,17.042,22.277,16.593l105.848-4.462c9.404-0.408,18.401-3.981,25.506-10.146l91.732-79.632
	c10.564-9.153,26.07-9.174,36.634-0.428c0.69,0.554,1.358,1.16,1.996,1.808l0.146,0.146
	C488.72,285.623,488.542,303.626,477.32,314.608z"/>
<path style="fill:#FEC495;" d="M468.553,301.934L352.266,415.472c-11.682,11.41-27.105,18.233-43.415,19.205L145.063,444.5h-0.084
	c-8.443,0.261-16.311,4.389-20.814,11.546l-3.082,4.901l-5.684,9.028c-33.708-22.194-61.858-52.14-81.91-87.301l9.561-12.716
	l12.612-16.792l31.943-42.496c15.203-22.016,39.623-36.342,66.351-37.616c1.087-0.042,2.173-0.084,3.25-0.094l147.31-1.776
	c5.402-0.052,10.376,1.682,14.378,4.629c0.637,2.299,0.961,4.723,0.878,7.252c-0.408,12.351-10.23,22.329-22.58,22.925
	l-92.118,4.504c-5.705,0.272-10.773,2.685-14.503,6.416c-4.598,4.598-7.137,11.191-6.29,18.202
	c0.773,6.457,4.284,11.964,9.279,15.454h0.01c2.508,9.979,11.724,17.042,22.277,16.593l105.848-4.462
	c9.404-0.408,18.401-3.981,25.506-10.146l91.732-79.632c10.564-9.153,26.07-9.174,36.634-0.428
	C478.981,282.499,476.63,294.034,468.553,301.934z"/>
<g>
</g>
<g>
</g>
<g>
</g>
<g>
</g>
<g>
</g>
<g>
</g>
<g>
</g>
<g>
</g>
<g>
</g>
<g>
</g>
<g>
</g>
<g>
</g>
<g>
</g>
<g>
</g>
<g>
</g>
</svg>
