<?xml version="1.0" encoding="iso-8859-1"?>
<!-- Generator: Adobe Illustrator 19.0.0, SVG Export Plug-In . SVG Version: 6.00 Build 0)  -->
<svg version="1.1" id="Capa_1" xmlns="http://www.w3.org/2000/svg" xmlns:xlink="http://www.w3.org/1999/xlink" x="0px" y="0px"
	 viewBox="0 0 512 512" style="enable-background:new 0 0 512 512;" xml:space="preserve">
<path style="fill:#91CDFF;" d="M512,256c0,141.385-114.615,256-256,256S0,397.385,0,256S114.615,0,256,0S512,114.615,512,256z"/>
<path style="fill:#ABDCFF;" d="M480,325c0,8.284-6.716,15-15,15h-60c-8.284,0-15-6.716-15-15s6.716-15,15-15h60
	C473.284,310,480,316.716,480,325z M511.227,236H477c-8.284,0-15,6.716-15,15s6.716,15,15,15h34.787
	c0.128-3.319,0.213-6.649,0.213-10C512,249.269,511.737,242.6,511.227,236z M507.871,210c-1.855-10.224-4.312-20.238-7.342-30H395
	c-8.284,0-15,6.716-15,15s6.716,15,15,15H507.871z M35,300H3.78c1.771,10.221,4.151,20.232,7.096,30H35c8.284,0,15-6.716,15-15
	S43.284,300,35,300z M165,240H25c-8.284,0-15,6.716-15,15s6.716,15,15,15h140c8.284,0,15-6.716,15-15S173.284,240,165,240z M315,60
	h90c4.072,0,7.759-1.628,10.462-4.262C403.273,46.019,390.179,37.392,376.323,30H315c-8.284,0-15,6.716-15,15S306.716,60,315,60z
	 M458.971,100H315c-8.284,0-15,6.716-15,15s6.716,15,15,15h163.88C472.94,119.516,466.281,109.496,458.971,100z M159.315,140
	c8.525,0,15.389-7.111,14.983-15.725c-0.38-8.068-7.33-14.275-15.406-14.275h-39.576c-8.284,0-15-6.716-15-15s-6.716-15-15-15
	H70.108c-15.921,16.81-29.576,35.781-40.502,56.423c2.617,2.227,6.003,3.577,9.709,3.577H159.315z M225,20h-68.359
	c-18.772,7.913-36.395,18.007-52.569,29.953C104.381,49.972,104.687,50,105,50h120c8.284,0,15-6.716,15-15S233.284,20,225,20z"/>
<path style="fill:#FFF5AF;" d="M229.786,207.568l172.457,28.188v192.702c-12.438,14.051-26.563,26.57-42.063,37.241H109.146
	c-19.426-13.629-36.869-29.888-51.817-48.261V235.756L229.786,207.568z"/>
<path style="fill:#FFFAD2;" d="M343.151,207.568l-110.546,28.188v192.702c7.972,14.051,17.027,26.57,26.963,37.241h143.287
	c19.002-13.332,36.115-29.17,50.843-47.052V235.756L343.151,207.568z"/>
<path style="fill:#F5DA73;" d="M388,438h-73.231c-1.105,0-2-0.895-2-2V293.262c0-1.105,0.895-2,2-2H388c1.105,0,2,0.895,2,2V436
	C390,437.105,389.105,438,388,438z"/>
<path style="fill:#C99C47;" d="M332.769,373L332.769,373c0,2.761-2.239,5-5,5h-15v-10h15C330.531,368,332.769,370.239,332.769,373z"
	/>
<path style="fill:#5F6E9B;" d="M84.154,374.216v-80.954c0-1.105,0.895-2,2-2H198c1.105,0,2,0.895,2,2v80.954c0,1.105-0.895,2-2,2
	H86.154C85.05,376.216,84.154,375.32,84.154,374.216z"/>
<path style="fill:#7382AF;" d="M197.096,291.265l-35.74,84.947h-47.419l35.74-84.947H197.096z M122.798,291.265l-35.74,84.947
	h12.276l35.74-84.947H122.798z"/>
<path style="fill:#D74646;" d="M432.453,229.829v14.616h-74.404H101.523H38.12v-10.771c0-2.475,0.918-4.861,2.575-6.699
	l92.415-102.428c1.896-2.102,4.594-3.301,7.425-3.301h193.95L432.453,229.829z"/>
<path style="fill:#FF5A5F;" d="M472.906,233.673v10.771h-63.404H296.008h-63.404v-10.771c0-2.475,0.918-4.861,2.575-6.699
	l92.415-102.428c1.896-2.102,4.594-3.301,7.425-3.301h35.472c2.831,0,5.529,1.2,7.425,3.301L395,143.481V110c-2.761,0-5-2.239-5-5
	V95c0-2.761,2.239-5,5-5h50c2.761,0,5,2.239,5,5v10c0,2.761-2.239,5-5,5v88.898l25.331,28.076
	C471.989,228.812,472.906,231.198,472.906,233.673z"/>
<path style="fill:#D74646;" d="M438.333,172v6c0,1.104-0.895,2-2,2h-8.384l-8.721-9.666c0.317-0.211,0.696-0.334,1.105-0.334h16
	C437.438,170,438.333,170.896,438.333,172z M395,110v33.481l15,16.625V150h13c1.105,0,2-0.896,2-2v-6c0-1.104-0.895-2-2-2h-13v-20
	h13c1.105,0,2-0.896,2-2v-6c0-1.104-0.895-2-2-2h-13c-2.761,0-5-2.239-5-5V95c0-2.761,2.239-5,5-5h-15c-2.761,0-5,2.239-5,5v10
	C390,107.761,392.239,110,395,110z M418.333,127v6c0,1.104,0.895,2,2,2h16c1.105,0,2-0.896,2-2v-6c0-1.104-0.895-2-2-2h-16
	C419.229,125,418.333,125.896,418.333,127z"/>
<path style="fill:#AF3237;" d="M210,220H110c-5.523,0-10-4.477-10-10l0,0c0-5.523,4.477-10,10-10h100c5.523,0,10,4.477,10,10l0,0
	C220,215.523,215.523,220,210,220z"/>
<path style="fill:#82CD64;" d="M67.029,428.692h377.943C398.162,479.885,330.834,512,256,512S113.838,479.885,67.029,428.692z"/>
<path style="fill:#C99C47;" d="M270,104.605C270,129.676,249.676,150,224.604,150s-45.396-20.324-45.396-45.396
	s20.324-45.396,45.396-45.396S270,79.533,270,104.605z M180,45.396C180,20.324,159.676,0,134.604,0S89.209,20.324,89.209,45.396
	s20.324,45.396,45.396,45.396S180,70.467,180,45.396z M160,140c-25.071,0-45.396,20.324-45.396,45.396
	c0,13.869,6.227,26.278,16.029,34.604h58.733c9.802-8.327,16.029-20.735,16.029-34.604C205.396,160.324,185.071,140,160,140z"/>
<path style="fill:#FFD06B;" d="M255.12,104.605c0,16.854-13.662,30.516-30.516,30.516s-30.516-13.662-30.516-30.516
	s13.662-30.516,30.516-30.516C241.458,74.088,255.12,87.751,255.12,104.605z M165.12,45.396c0-16.854-13.662-30.516-30.516-30.516
	s-30.516,13.662-30.516,30.516s13.662,30.516,30.516,30.516S165.12,62.249,165.12,45.396z M160,154.88
	c-16.853,0-30.516,13.662-30.516,30.516s13.662,30.516,30.516,30.516s30.516-13.663,30.516-30.516S176.854,154.88,160,154.88z"/>
<g>
	<path style="fill:#EDC85F;" d="M243.771,104.605c0,10.585-8.581,19.167-19.167,19.167s-19.167-8.582-19.167-19.167
		c0-10.586,8.581-19.167,19.167-19.167S243.771,94.019,243.771,104.605z M153.771,45.396c0-10.585-8.581-19.167-19.167-19.167
		s-19.167,8.582-19.167,19.167c0,10.586,8.581,19.167,19.167,19.167S153.771,55.981,153.771,45.396z M160,166.229
		c-10.586,0-19.167,8.582-19.167,19.167c0,10.586,8.581,19.167,19.167,19.167s19.167-8.581,19.167-19.167
		C179.167,174.81,170.586,166.229,160,166.229z"/>
	<path style="fill:#EDC85F;" d="M452.561,420c-5.841,6.994-12.05,13.669-18.594,20H78.033c-6.544-6.331-12.753-13.006-18.594-20
		H452.561z"/>
</g>
<g>
</g>
<g>
</g>
<g>
</g>
<g>
</g>
<g>
</g>
<g>
</g>
<g>
</g>
<g>
</g>
<g>
</g>
<g>
</g>
<g>
</g>
<g>
</g>
<g>
</g>
<g>
</g>
<g>
</g>
</svg>
